<svg width="14" height="15" viewBox="0 0 14 15" fill="none" xmlns="http://www.w3.org/2000/svg">
<path d="M12.5716 6.02781C12.5497 6.00813 12.5234 5.995 12.495 5.995C12.4819 5.995 12.4688 5.99719 12.4513 6.00375C12.4119 6.01906 12.3856 6.05844 12.3856 6.10219V6.80219H9.84375L9.82188 6.72344C9.55063 5.7325 8.76531 4.94719 7.77219 4.67594L7.69344 4.65406V2.11H8.39781C8.44156 2.11 8.48094 2.08375 8.49625 2.04656C8.51375 2.005 8.505 1.95687 8.47219 1.92625L7.07438 0.530625C7.05469 0.510937 7.02844 0.5 7 0.5C6.97156 0.5 6.94531 0.510937 6.92344 0.530625L5.52563 1.92844C5.495 1.95906 5.48625 2.005 5.50375 2.04656C5.51906 2.08594 5.55844 2.11 5.60219 2.11H6.30656V4.65188L6.22781 4.67375C5.23469 4.945 4.44938 5.73031 4.17812 6.72125L4.15625 6.8H1.61219V6.1C1.61219 6.05625 1.58594 6.01687 1.54437 6.00156C1.53125 5.99937 1.51813 5.995 1.505 5.995C1.47656 5.995 1.45031 6.00594 1.43062 6.02563L0.0328125 7.42344C0.0109375 7.44531 0 7.47156 0 7.50219C0 7.53062 0.0109375 7.55687 0.030625 7.57656L1.42844 8.97219C1.44813 8.99187 1.47656 9.00281 1.505 9.00281C1.52031 9.00281 1.53562 9.00062 1.54437 8.99625C1.58594 8.97875 1.61219 8.93937 1.61219 8.89563V8.19563H4.15406L4.17594 8.27437C4.44719 9.26531 5.2325 10.0506 6.22563 10.3219L6.30437 10.3438V12.8856H5.6C5.55625 12.8856 5.51687 12.9097 5.50156 12.9534C5.48406 12.9928 5.495 13.0387 5.52344 13.0694L6.92125 14.465C6.94531 14.4891 6.97156 14.5 7 14.5C7.02844 14.5 7.05469 14.4891 7.07438 14.4672L8.47219 13.0737C8.50281 13.0431 8.51156 12.9972 8.49625 12.9534C8.48094 12.9141 8.44156 12.8878 8.39781 12.8878H7.69344V10.3438L7.77219 10.3219C8.76531 10.0506 9.55063 9.26531 9.82188 8.27437L9.84375 8.19563H12.3856V8.89563C12.3856 8.93937 12.4119 8.97875 12.4534 8.99625C12.4644 9.00062 12.4775 9.00281 12.495 9.00281C12.5234 9.00281 12.5519 8.99187 12.5716 8.97219L13.9694 7.57438C13.9891 7.55688 14 7.52844 14 7.50219C14 7.465 13.9825 7.44094 13.9672 7.42562L12.5716 6.02781Z" fill="#3D3B48"/>
<path d="M13.8927 0.501953H11.9174C11.8737 0.501953 11.8343 0.528203 11.8168 0.565391C11.7993 0.606953 11.8102 0.652891 11.8408 0.685703L12.3374 1.18445L9.74303 3.77664C9.72334 3.79633 9.7124 3.82477 9.7124 3.8532C9.7124 3.88383 9.72334 3.91008 9.74303 3.92977L10.5721 4.75664C10.5918 4.77633 10.6202 4.78727 10.6465 4.78727C10.6749 4.78727 10.7033 4.77633 10.723 4.75445L13.3196 2.16227L13.8162 2.65883C13.8358 2.67852 13.8643 2.69164 13.8927 2.69164C13.9058 2.69164 13.919 2.68945 13.9343 2.68289C13.9737 2.66539 13.9999 2.62602 13.9999 2.58445V0.609141C13.9999 0.547891 13.9518 0.501953 13.8927 0.501953Z" fill="#3D3B48"/>
<path d="M0.065625 2.68273C0.07875 2.68929 0.0940625 2.69148 0.107187 2.69148C0.135625 2.69148 0.161875 2.68054 0.18375 2.65867L0.680312 2.16211L3.27469 4.75429C3.29656 4.77617 3.32281 4.78711 3.35125 4.78711C3.37969 4.78711 3.40812 4.77617 3.42781 4.75648L4.25469 3.92961C4.27656 3.90773 4.2875 3.88148 4.2875 3.85304C4.2875 3.82461 4.27437 3.79617 4.25687 3.77648L1.6625 1.18211L2.15906 0.683356C2.18969 0.652731 2.19844 0.608981 2.18312 0.569606C2.16562 0.530231 2.12625 0.503981 2.08469 0.503981H0.107187C0.0459375 0.501794 0 0.547731 0 0.608981V2.58429C0 2.62804 0.02625 2.66742 0.065625 2.68273Z" fill="#3D3B48"/>
<path d="M3.42781 10.2416C3.40812 10.2219 3.37969 10.2109 3.35125 10.2109C3.32281 10.2109 3.29437 10.2219 3.27469 10.2416L0.680312 12.8359L0.18375 12.3372C0.164062 12.3175 0.135625 12.3044 0.107188 12.3044C0.091875 12.3044 0.07875 12.3066 0.0678125 12.3109C0.02625 12.3306 0 12.37 0 12.4137V14.3913C0 14.4525 0.048125 14.5006 0.107188 14.5006H2.0825C2.12406 14.5006 2.16344 14.4722 2.18094 14.435C2.19844 14.3934 2.1875 14.3475 2.15906 14.3169L1.6625 13.8181L4.25688 11.2259C4.27875 11.2041 4.28969 11.1756 4.28969 11.1472C4.28969 11.1209 4.27875 11.0925 4.25906 11.0728L3.42781 10.2416Z" fill="#3D3B48"/>
<path d="M13.9343 12.3153C13.919 12.3087 13.9058 12.3066 13.8905 12.3066C13.8621 12.3066 13.8358 12.3175 13.8162 12.3372L13.3196 12.8359L10.723 10.2416C10.7033 10.2219 10.6771 10.2109 10.6465 10.2109C10.618 10.2109 10.5918 10.2219 10.5721 10.2416L9.74303 11.0728C9.72334 11.0925 9.7124 11.1209 9.7124 11.1494C9.7124 11.1778 9.72334 11.2041 9.74303 11.2259L12.3374 13.8181L11.8408 14.3147C11.8102 14.3453 11.8015 14.3913 11.8168 14.4306C11.8343 14.4722 11.8737 14.5006 11.9174 14.5006H13.8927C13.9518 14.5006 13.9999 14.4525 13.9999 14.3913V12.4137C13.9999 12.3722 13.9737 12.3306 13.9343 12.3153Z" fill="#3D3B48"/>
</svg>
