<svg width="11" height="6" viewBox="0 0 11 6" fill="none" xmlns="http://www.w3.org/2000/svg">
<path d="M0.242127 0.229439C0.397208 0.0825295 0.607514 0 0.826798 0C1.04608 0 1.25639 0.0825295 1.41147 0.229439L5.50499 4.10846L9.59852 0.229439C9.75449 0.086693 9.96338 0.0077061 10.1802 0.00949156C10.397 0.011277 10.6045 0.0936919 10.7578 0.238985C10.9111 0.384278 10.9981 0.580825 11 0.786293C11.0019 0.991761 10.9185 1.18971 10.7679 1.33751L6.08966 5.77056C5.93458 5.91747 5.72428 6 5.50499 6C5.28571 6 5.0754 5.91747 4.92032 5.77056L0.242127 1.33751C0.0870932 1.19055 0 0.991266 0 0.783473C0 0.57568 0.0870932 0.376394 0.242127 0.229439Z" fill="#3D3B48"/>
</svg>
