<svg width="102" height="22" viewBox="0 0 102 22" fill="none" xmlns="http://www.w3.org/2000/svg">
<path d="M23.0425 17.1181V0.555237H27.3793V17.1181H23.0425Z" fill="#FFA525"/>
<path d="M40.5091 4.93428H43.7455V17.1076H40.3953L40.0212 16.2486C38.937 17.0919 37.6685 17.5162 36.2156 17.5162C34.9471 17.5162 33.8087 17.2386 32.8058 16.6833C31.7975 16.1281 31.0168 15.3581 30.4531 14.3733C29.8893 13.3886 29.6128 12.2676 29.6128 11.0209C29.6128 9.13523 30.2308 7.58999 31.4668 6.37999C32.7028 5.17523 34.2857 4.56761 36.2156 4.56761C37.6956 4.56761 38.9804 5.00237 40.0646 5.86666L40.5091 4.93428ZM34.7791 13.0114C35.3103 13.5405 35.9825 13.8024 36.7957 13.8024C37.6088 13.8024 38.2811 13.5405 38.8177 13.0114C39.3544 12.4824 39.6201 11.8224 39.6201 11.0314C39.6201 10.2405 39.3544 9.58047 38.8177 9.05142C38.2811 8.52237 37.6088 8.26047 36.7957 8.26047C35.9825 8.26047 35.3103 8.52237 34.7791 9.04618C34.2478 9.56999 33.9822 10.2352 33.9822 11.0314C33.9822 11.8224 34.2478 12.4824 34.7791 13.0114Z" fill="#FFA525"/>
<path d="M54.0668 4.54666C55.9967 4.54666 57.5797 5.15428 58.8157 6.36952C60.0517 7.58476 60.6697 9.13523 60.6697 11.0314C60.6697 12.2781 60.3878 13.399 59.8294 14.389C59.2656 15.379 58.485 16.149 57.4767 16.699C56.4683 17.249 55.3353 17.5267 54.0668 17.5267C52.9338 17.5267 51.9092 17.2595 50.9931 16.7252V21.5128H46.7104V4.94476H49.6595L50.207 5.9138C51.2912 5.00238 52.576 4.54666 54.0668 4.54666ZM51.4647 13.0219C52.0014 13.5509 52.6736 13.8129 53.4868 13.8129C54.2999 13.8129 54.9721 13.5509 55.5088 13.0219C56.0455 12.4929 56.3111 11.8276 56.3111 11.0314C56.3111 10.23 56.0455 9.56999 55.5088 9.04095C54.9721 8.5119 54.2999 8.24999 53.4868 8.24999C52.6736 8.24999 52.0014 8.5119 51.4647 9.04095C50.928 9.56999 50.6624 10.2352 50.6624 11.0314C50.6624 11.8328 50.928 12.4929 51.4647 13.0219Z" fill="#FFA525"/>
<path d="M69.5277 13.4409H71.2028V17.1181H68.2212C66.8226 17.1181 65.7276 16.7305 64.9307 15.9552C64.1338 15.18 63.7326 14.1219 63.7326 12.7705V8.17142H61.4341V7.1919L67.072 1.39333H67.9719V4.94999H71.1378V8.17666H68.0749V12.0476C68.0749 12.4824 68.205 12.8228 68.4598 13.069C68.7146 13.3152 69.0724 13.4409 69.5277 13.4409Z" fill="#FFA525"/>
<path d="M86.3061 10.9214C86.3061 11.3038 86.279 11.6705 86.2248 12.0214H76.8627C77.009 12.7181 77.3018 13.2471 77.7409 13.6086C78.18 13.97 78.7492 14.1481 79.4377 14.1481C79.9472 14.1481 80.4026 14.0486 80.7983 13.8443C81.1995 13.64 81.5031 13.3624 81.7145 13.001H86.0297C85.5905 14.3891 84.7774 15.4838 83.5848 16.2957C82.3975 17.1076 81.0152 17.511 79.4322 17.511C78.142 17.511 76.9765 17.2281 75.9302 16.6676C74.884 16.1071 74.0708 15.3319 73.4745 14.3419C72.8782 13.3519 72.5854 12.2414 72.5854 11.021C72.5854 9.1562 73.2306 7.61096 74.5262 6.39048C75.8218 5.16477 77.4536 4.55191 79.4268 4.55191C80.4189 4.55191 81.3459 4.71953 82.2078 5.04953C83.0643 5.37953 83.7908 5.83001 84.3871 6.39572C84.9834 6.96667 85.4496 7.64239 85.7857 8.4281C86.1381 9.20858 86.3061 10.0414 86.3061 10.9214ZM79.4377 7.83096C78.8088 7.83096 78.2775 7.9881 77.8493 8.30762C77.421 8.62715 77.1174 9.09334 76.944 9.70096H82.0343C81.6494 8.45429 80.7821 7.83096 79.4377 7.83096Z" fill="#FFA525"/>
<path d="M101.301 17.1181H96.1887L93.0336 11.969V17.1181H88.6968V0.555237H93.0336V9.71143L96.0423 4.94476H100.905L96.9856 10.7433L101.301 17.1181Z" fill="#FFA525"/>
<path d="M3.31513 9.50191L0.485342 10.0729C0.273921 10.1148 0.0625 9.98382 0.0625 9.80572V8.65858C0.0625 8.48048 0.2685 8.34953 0.485342 8.39143L3.31513 8.96239C3.65666 9.03572 3.65666 9.43382 3.31513 9.50191Z" fill="white"/>
<path d="M4.17189 11.7595L2.52931 13.2681C2.36126 13.4252 2.08479 13.3938 1.97094 13.2052L1.43968 12.32C1.32584 12.1314 1.43426 11.8852 1.66194 11.8224L3.83579 11.2043C4.19357 11.0943 4.44294 11.5081 4.17189 11.7595Z" fill="white"/>
<path d="M3.83536 7.25476L1.66152 6.63143C1.43925 6.56857 1.33083 6.32238 1.44467 6.13381L1.97594 5.24333C2.08436 5.06 2.36083 5.02857 2.52889 5.18571L4.17146 6.69428C4.44252 6.94571 4.19315 7.35952 3.83536 7.25476Z" fill="white"/>
<path d="M10.65 7.78905C10.8343 7.19191 11.1433 6.65762 11.577 6.19667C12.336 5.39524 13.2901 4.99715 14.4448 4.99715C15.3013 4.99715 16.0602 5.2381 16.7216 5.72524C16.9222 5.87191 17.1065 6.03953 17.2745 6.21762L20.3808 3.21619C20.2344 3.07477 20.0772 2.93857 19.9146 2.80238C18.4021 1.56096 16.5698 0.937622 14.4285 0.937622C12.7968 0.937622 11.3168 1.29905 9.99407 2.01667C8.67134 2.73429 7.63049 3.72953 6.87697 4.99191C6.36739 5.85619 6.03128 6.78858 5.86865 7.78905H10.65Z" fill="#FFA525"/>
<path d="M16.8028 12.6552C16.136 13.1791 15.3554 13.441 14.4501 13.441C13.2954 13.441 12.3413 13.0429 11.5823 12.2519C11.1432 11.7962 10.8342 11.2619 10.6499 10.6595H5.87939C6.04203 11.66 6.37813 12.5976 6.89313 13.4619C7.64666 14.7243 8.68208 15.7143 10.0102 16.4319C11.333 17.1495 12.8129 17.511 14.4447 17.511C16.6185 17.511 18.4671 16.8667 19.9904 15.5833C20.1259 15.4681 20.2614 15.3476 20.3861 15.2271L17.269 12.2152C17.1227 12.3724 16.9709 12.5191 16.8028 12.6552Z" fill="#FFA525"/>
</svg>
