<svg width="13" height="13" viewBox="0 0 13 13" fill="none" xmlns="http://www.w3.org/2000/svg">
<path d="M5.33274 4.37735L5.33274 6.84361C5.33274 7.07817 5.45949 7.29933 5.65962 7.41996L7.74103 8.65979C7.98119 8.80052 8.28806 8.7201 8.42816 8.48554C8.56825 8.24428 8.49487 7.93599 8.25471 7.79526L6.34008 6.64925L6.34008 4.37065C6.33341 4.10258 6.10659 3.87472 5.83307 3.87472C5.55956 3.87472 5.33274 4.10258 5.33274 4.37735ZM12.0039 4.87998L12.0039 1.33475C12.0039 1.03317 11.6437 0.885728 11.4369 1.10018L10.2494 2.2931C9.62448 1.66529 8.86944 1.18364 8.03806 0.88246C7.20668 0.581281 6.31942 0.467984 5.43947 0.550639C2.64425 0.805306 0.3427 3.0638 0.0358265 5.87185C-0.126389 7.44634 0.334017 9.0218 1.31772 10.2583C2.30142 11.4949 3.72957 12.2934 5.29407 12.4816C6.85857 12.6698 8.43402 12.2327 9.68055 11.2644C10.9271 10.2962 11.7448 8.87448 11.9572 7.30603C12.0039 6.90392 11.6904 6.55543 11.2901 6.55543C10.9565 6.55543 10.6763 6.80339 10.6363 7.13178C10.3495 9.4707 8.34143 11.2802 5.93314 11.2467C3.45814 11.2132 1.37006 9.11551 1.33003 6.62245C1.29001 4.00875 3.40477 1.86419 5.99985 1.86419C7.28739 1.86419 8.45484 2.39363 9.30208 3.23805L7.90781 4.63872C7.69433 4.85318 7.8411 5.21507 8.1413 5.21507L11.6703 5.21507C11.8571 5.21507 12.0039 5.06763 12.0039 4.87998Z" fill="#2A2932"/>
</svg>
