<svg width="16" height="17" viewBox="0 0 16 17" fill="none" xmlns="http://www.w3.org/2000/svg">
<path d="M3.40625 15.5C4.73519 15.5 5.8125 14.4227 5.8125 13.0938C5.8125 11.7648 4.73519 10.6875 3.40625 10.6875C2.07731 10.6875 1 11.7648 1 13.0938C1 14.4227 2.07731 15.5 3.40625 15.5Z" fill="#3D3B48" stroke="#3D3B48" stroke-width="1.05" stroke-linecap="round" stroke-linejoin="round"/>
<path d="M12.5938 6.3125C13.9227 6.3125 15 5.23519 15 3.90625C15 2.57731 13.9227 1.5 12.5938 1.5C11.2648 1.5 10.1875 2.57731 10.1875 3.90625C10.1875 5.23519 11.2648 6.3125 12.5938 6.3125Z" fill="#3D3B48" stroke="#3D3B48" stroke-width="1.05" stroke-linecap="round" stroke-linejoin="round"/>
<path d="M3.40625 8.9375V4.78125C3.40625 4.54919 3.49844 4.32663 3.66253 4.16253C3.82663 3.99844 4.04919 3.90625 4.28125 3.90625H8.4375" stroke="#3D3B48" stroke-width="1.05" stroke-linecap="round" stroke-linejoin="round"/>
<path d="M6.90625 2.375L8.4375 3.90625L6.90625 5.4375" stroke="#3D3B48" stroke-width="1.05" stroke-linecap="round" stroke-linejoin="round"/>
<path d="M12.593 8.06152V12.2178C12.593 12.4498 12.5008 12.6724 12.3367 12.8365C12.1726 13.0006 11.9501 13.0928 11.718 13.0928H7.56177" stroke="#3D3B48" stroke-width="1.05" stroke-linecap="round" stroke-linejoin="round"/>
<path d="M9.09302 14.624L7.56177 13.0928L9.09302 11.5615" stroke="#3D3B48" stroke-width="1.05" stroke-linecap="round" stroke-linejoin="round"/>
</svg>
