<svg width="11" height="11" viewBox="0 0 11 11" fill="none" xmlns="http://www.w3.org/2000/svg">
<path d="M0 1.98611C0 1.45936 0.20925 0.954186 0.581718 0.581718C0.954186 0.20925 1.45936 0 1.98611 0H9.01389C9.54064 0 10.0458 0.20925 10.4183 0.581718C10.7907 0.954186 11 1.45936 11 1.98611V9.01389C11 9.54064 10.7907 10.0458 10.4183 10.4183C10.0458 10.7907 9.54064 11 9.01389 11H1.98611C1.45936 11 0.954186 10.7907 0.581718 10.4183C0.20925 10.0458 0 9.54064 0 9.01389V1.98611ZM5.95833 2.90278C5.95833 2.78122 5.91004 2.66464 5.82409 2.57869C5.73814 2.49273 5.62156 2.44444 5.5 2.44444C5.37844 2.44444 5.26186 2.49273 5.17591 2.57869C5.08996 2.66464 5.04167 2.78122 5.04167 2.90278V5.04167H2.90278C2.78122 5.04167 2.66464 5.08996 2.57869 5.17591C2.49273 5.26186 2.44444 5.37844 2.44444 5.5C2.44444 5.62156 2.49273 5.73814 2.57869 5.82409C2.66464 5.91004 2.78122 5.95833 2.90278 5.95833H5.04167V8.09722C5.04167 8.21878 5.08996 8.33536 5.17591 8.42131C5.26186 8.50727 5.37844 8.55556 5.5 8.55556C5.62156 8.55556 5.73814 8.50727 5.82409 8.42131C5.91004 8.33536 5.95833 8.21878 5.95833 8.09722V5.95833H8.09722C8.21878 5.95833 8.33536 5.91004 8.42131 5.82409C8.50727 5.73814 8.55556 5.62156 8.55556 5.5C8.55556 5.37844 8.50727 5.26186 8.42131 5.17591C8.33536 5.08996 8.21878 5.04167 8.09722 5.04167H5.95833V2.90278Z" fill="#2A2932"/>
</svg>
