<svg width="11" height="11" viewBox="0 0 11 11" fill="none" xmlns="http://www.w3.org/2000/svg">
<path d="M0.997314 10.351C0.997314 10.5722 1.17606 10.751 1.39731 10.751H10.5973C10.8186 10.751 10.9973 10.5722 10.9973 10.351V5.10098H0.997314V10.351ZM10.5973 1.65098H8.49731V0.850977C8.49731 0.795977 8.45231 0.750977 8.39731 0.750977H7.69731C7.64231 0.750977 7.59731 0.795977 7.59731 0.850977V1.65098H4.39731V0.850977C4.39731 0.795977 4.35231 0.750977 4.29731 0.750977H3.59731C3.54231 0.750977 3.49731 0.795977 3.49731 0.850977V1.65098H1.39731C1.17606 1.65098 0.997314 1.82973 0.997314 2.05098V4.25098H10.9973V2.05098C10.9973 1.82973 10.8186 1.65098 10.5973 1.65098Z" fill="#2A2932"/>
</svg>
