<svg width="12" height="12" viewBox="0 0 12 12" fill="none" xmlns="http://www.w3.org/2000/svg">
<path d="M5.07692 1.71429H6.92308C6.92308 1.48696 6.82582 1.26894 6.65271 1.10819C6.4796 0.947449 6.24482 0.857143 6 0.857143C5.75518 0.857143 5.5204 0.947449 5.34729 1.10819C5.17418 1.26894 5.07692 1.48696 5.07692 1.71429ZM4.15385 1.71429C4.15385 1.25963 4.34835 0.823594 4.69457 0.502103C5.04079 0.180612 5.51037 0 6 0C6.48963 0 6.95921 0.180612 7.30543 0.502103C7.65165 0.823594 7.84615 1.25963 7.84615 1.71429H11.5385C11.6609 1.71429 11.7783 1.75944 11.8648 1.83981C11.9514 1.92018 12 2.02919 12 2.14286C12 2.25652 11.9514 2.36553 11.8648 2.4459C11.7783 2.52628 11.6609 2.57143 11.5385 2.57143H11.0178L9.90554 10.1469C9.8301 10.6602 9.5569 11.1308 9.13652 11.4715C8.71614 11.8123 8.17706 12 7.61908 12H4.38092C3.82294 12 3.28385 11.8123 2.86348 11.4715C2.4431 11.1308 2.1699 10.6602 2.09446 10.1469L0.982154 2.57143H0.461538C0.339131 2.57143 0.221737 2.52628 0.135181 2.4459C0.0486262 2.36553 0 2.25652 0 2.14286C0 2.02919 0.0486262 1.92018 0.135181 1.83981C0.221737 1.75944 0.339131 1.71429 0.461538 1.71429H4.15385ZM5.07692 4.71429C5.07692 4.60062 5.0283 4.49161 4.94174 4.41124C4.85519 4.33087 4.73779 4.28571 4.61538 4.28571C4.49298 4.28571 4.37558 4.33087 4.28903 4.41124C4.20247 4.49161 4.15385 4.60062 4.15385 4.71429V9C4.15385 9.11366 4.20247 9.22267 4.28903 9.30305C4.37558 9.38342 4.49298 9.42857 4.61538 9.42857C4.73779 9.42857 4.85519 9.38342 4.94174 9.30305C5.0283 9.22267 5.07692 9.11366 5.07692 9V4.71429ZM7.38462 4.28571C7.26221 4.28571 7.14481 4.33087 7.05826 4.41124C6.9717 4.49161 6.92308 4.60062 6.92308 4.71429V9C6.92308 9.11366 6.9717 9.22267 7.05826 9.30305C7.14481 9.38342 7.26221 9.42857 7.38462 9.42857C7.50702 9.42857 7.62442 9.38342 7.71097 9.30305C7.79753 9.22267 7.84615 9.11366 7.84615 9V4.71429C7.84615 4.60062 7.79753 4.49161 7.71097 4.41124C7.62442 4.33087 7.50702 4.28571 7.38462 4.28571Z" fill="#2A2932"/>
</svg>
