<svg width="113" height="111" viewBox="0 0 113 111" fill="none" xmlns="http://www.w3.org/2000/svg">
<path d="M50.4688 107.625C73.8891 107.625 92.875 88.6391 92.875 65.2188C92.875 41.7984 73.8891 22.8125 50.4688 22.8125C27.0484 22.8125 8.0625 41.7984 8.0625 65.2188C8.0625 88.6391 27.0484 107.625 50.4688 107.625Z" fill="#EDEBDC"/>
<path d="M101.697 109.469H63.7714L61.5312 59.6875H103.938L101.697 109.469Z" fill="#6B4F5B" stroke="#4C241D" stroke-width="2" stroke-linecap="round" stroke-linejoin="round"/>
<path d="M52.3125 59.6875H111.312" stroke="#4C241D" stroke-width="2" stroke-linecap="round" stroke-linejoin="round"/>
<path d="M103.938 50.4688H61.5312V59.6875H103.938V50.4688Z" fill="#B5A19C" stroke="#4C241D" stroke-width="2" stroke-linecap="round" stroke-linejoin="round"/>
<path d="M91.0312 43.0938H74.4375V50.4688H91.0312V43.0938Z" stroke="#4C241D" stroke-width="2" stroke-linecap="round" stroke-linejoin="round"/>
<path d="M33.6962 59.094L43.9346 62.1214L33.6962 65.1488L31.4432 74.611L29.192 65.1488L18.9536 62.1214L29.192 59.094L31.4432 49.6318L33.6962 59.094Z" fill="#FFCE56" stroke="#4C241D" stroke-width="2" stroke-linecap="round" stroke-linejoin="round"/>
<path d="M39.3289 19.3096C39.3289 19.3096 33.1173 27.5161 38.2227 34.7436" stroke="#4C241D" stroke-width="2" stroke-linecap="round" stroke-linejoin="round"/>
<path d="M59.5807 31.4782C59.3761 31.6811 59.116 31.8187 58.8332 31.8737C58.5504 31.9286 58.2576 31.8985 57.9919 31.7871C57.7262 31.6757 57.4995 31.488 57.3405 31.2477C57.1815 31.0075 57.0974 30.7255 57.0986 30.4374C57.0999 30.1492 57.1866 29.868 57.3478 29.6292C57.5089 29.3903 57.7373 29.2047 58.004 29.0956C58.2706 28.9866 58.5636 28.9591 58.846 29.0166C59.1283 29.0741 59.3872 29.2141 59.5899 29.4187C59.8617 29.6931 60.0135 30.0642 60.0117 30.4504C60.01 30.8366 59.855 31.2063 59.5807 31.4782Z" fill="#4C241D"/>
<path d="M67.778 39.7512C67.5734 39.954 67.3132 40.0916 67.0304 40.1466C66.7476 40.2016 66.4549 40.1715 66.1892 40.06C65.9235 39.9486 65.6968 39.7609 65.5378 39.5207C65.3788 39.2804 65.2946 38.9984 65.2959 38.7103C65.2972 38.4222 65.3839 38.1409 65.545 37.9021C65.7062 37.6633 65.9345 37.4776 66.2012 37.3686C66.4679 37.2596 66.7609 37.2321 67.0432 37.2896C67.3255 37.3471 67.5844 37.487 67.7872 37.6917C68.0586 37.9663 68.21 38.3373 68.2082 38.7233C68.2065 39.1094 68.0518 39.479 67.778 39.7512Z" fill="#4C241D"/>
<path d="M62.6082 44.8732C62.4047 45.0766 62.1455 45.2151 61.8633 45.2712C61.5812 45.3273 61.2887 45.2984 61.0229 45.1883C60.7571 45.0782 60.53 44.8917 60.3701 44.6525C60.2103 44.4133 60.125 44.1321 60.125 43.8444C60.125 43.5567 60.2103 43.2754 60.3701 43.0362C60.53 42.797 60.7571 42.6105 61.0229 42.5004C61.2887 42.3903 61.5812 42.3615 61.8633 42.4176C62.1455 42.4737 62.4047 42.6122 62.6082 42.8156C62.7433 42.9506 62.8505 43.111 62.9237 43.2876C62.9968 43.4641 63.0344 43.6533 63.0344 43.8444C63.0344 44.0354 62.9968 44.2247 62.9237 44.4012C62.8505 44.5777 62.7433 44.7381 62.6082 44.8732Z" fill="#4C241D"/>
<path d="M72.9459 34.6275C72.7423 34.8307 72.4831 34.9689 72.201 35.0248C71.9189 35.0807 71.6266 35.0517 71.3609 34.9415C71.0953 34.8313 70.8683 34.6448 70.7086 34.4057C70.5489 34.1665 70.4636 33.8854 70.4636 33.5978C70.4636 33.3102 70.5489 33.0291 70.7086 32.7899C70.8683 32.5507 71.0953 32.3643 71.3609 32.2541C71.6266 32.1439 71.9189 32.1149 72.201 32.1708C72.4831 32.2267 72.7423 32.3649 72.9459 32.5681C73.0813 32.7032 73.1887 32.8637 73.262 33.0404C73.3353 33.2171 73.3731 33.4065 73.3731 33.5978C73.3731 33.7891 73.3353 33.9785 73.262 34.1552C73.1887 34.3319 73.0813 34.4924 72.9459 34.6275Z" fill="#4C241D"/>
<path d="M65.7461 33.5656C65.5427 33.769 65.2835 33.9075 65.0013 33.9636C64.7191 34.0196 64.4266 33.9908 64.1609 33.8807C63.8951 33.7706 63.6679 33.5841 63.5081 33.3449C63.3482 33.1057 63.2629 32.8244 63.2629 32.5368C63.2629 32.2491 63.3482 31.9678 63.5081 31.7286C63.6679 31.4894 63.8951 31.3029 64.1609 31.1928C64.4266 31.0827 64.7191 31.0539 65.0013 31.1099C65.2835 31.166 65.5427 31.3045 65.7461 31.5079C65.8813 31.643 65.9885 31.8034 66.0616 31.9799C66.1347 32.1565 66.1724 32.3457 66.1724 32.5368C66.1724 32.7278 66.1347 32.917 66.0616 33.0936C65.9885 33.2701 65.8813 33.4305 65.7461 33.5656Z" fill="#4C241D"/>
<path d="M61.6106 37.6639C61.4063 37.8664 61.1464 38.0037 60.864 38.0586C60.5816 38.1134 60.2893 38.0832 60.024 37.9719C59.7587 37.8606 59.5323 37.6731 59.3736 37.4332C59.2148 37.1933 59.1308 36.9117 59.1321 36.624C59.1334 36.3363 59.2199 36.0554 59.3808 35.8169C59.5417 35.5784 59.7697 35.393 60.036 35.2841C60.3023 35.1752 60.5949 35.1476 60.8768 35.205C61.1587 35.2623 61.4173 35.402 61.6199 35.6063C61.7544 35.742 61.8609 35.9029 61.9332 36.0797C62.0056 36.2566 62.0424 36.4459 62.0415 36.637C62.0406 36.8281 62.0022 37.0171 61.9282 37.1933C61.8543 37.3695 61.7464 37.5294 61.6106 37.6639Z" fill="#4C241D"/>
<path d="M26.2273 13.2971L28.7938 10.7564L23.6719 5.5884L27.8056 1.48975L40.1476 3.60268L53.4687 17.0418L45.5719 24.8648L38.3998 17.6281L31.3511 18.4652L26.2273 13.2971Z" fill="#B5A19C" stroke="#4C241D" stroke-width="2" stroke-linecap="round" stroke-linejoin="round"/>
<path d="M56.2226 22.5017L52.1238 18.3662L46.8923 23.5514L50.9911 27.6868L56.2226 22.5017Z" fill="#E7D1C4" stroke="#4C241D" stroke-width="2" stroke-linecap="round" stroke-linejoin="round"/>
<path d="M26.159 23.7051L20.9449 18.4891C20.2536 17.7976 19.8652 16.8598 19.8652 15.882C19.8652 14.9042 20.2536 13.9665 20.9449 13.275C21.6364 12.5837 22.5742 12.1953 23.5519 12.1953C24.5297 12.1953 25.4675 12.5837 26.159 13.275L31.375 18.4891C31.7176 18.8315 31.9893 19.2381 32.1747 19.6856C32.3601 20.1331 32.4555 20.6127 32.4555 21.0971C32.4555 21.5814 32.3601 22.0611 32.1747 22.5086C31.9893 22.956 31.7176 23.3626 31.375 23.7051C31.0325 24.0476 30.626 24.3194 30.1785 24.5048C29.731 24.6902 29.2514 24.7856 28.767 24.7856C28.2826 24.7856 27.803 24.6902 27.3555 24.5048C26.908 24.3194 26.5014 24.0476 26.159 23.7051Z" fill="#E7D1C4" stroke="#4C241D" stroke-width="2" stroke-linecap="round" stroke-linejoin="round"/>
<path d="M18.891 16.435L26.909 24.4529C27.7475 25.2914 28.2185 26.4286 28.2185 27.6144C28.2185 28.8003 27.7475 29.9375 26.909 30.776L15.7295 41.9555L1.38848 27.6144L12.568 16.435C13.4064 15.5965 14.5437 15.1254 15.7295 15.1254C16.9153 15.1254 18.0525 15.5965 18.891 16.435Z" fill="white" stroke="#4C241D" stroke-width="2" stroke-linecap="round" stroke-linejoin="round"/>
<path d="M78.2764 9.29248C78.2771 9.68245 78.1622 10.0639 77.946 10.3885C77.7299 10.7131 77.4223 10.9663 77.0623 11.116C76.7022 11.2658 76.3058 11.3053 75.9232 11.2297C75.5406 11.1541 75.1891 10.9667 74.9131 10.6912C74.637 10.4157 74.449 10.0645 74.3726 9.68204C74.2963 9.29961 74.3351 8.90312 74.4842 8.54276C74.6332 8.1824 74.8858 7.87436 75.21 7.65762C75.5343 7.44088 75.9155 7.3252 76.3054 7.3252C76.8274 7.32568 77.3279 7.53299 77.6973 7.90171C78.0667 8.27044 78.2749 8.77053 78.2764 9.29248Z" fill="#4C241D"/>
<path d="M98.4062 17.2812V20.9688" stroke="#4C241D" stroke-width="2" stroke-linecap="round" stroke-linejoin="round"/>
<path d="M98.4062 28.3438V32.0312" stroke="#4C241D" stroke-width="2" stroke-linecap="round" stroke-linejoin="round"/>
<path d="M91.0312 24.6562H94.7188" stroke="#4C241D" stroke-width="2" stroke-linecap="round" stroke-linejoin="round"/>
<path d="M102.094 24.6562H105.781" stroke="#4C241D" stroke-width="2" stroke-linecap="round" stroke-linejoin="round"/>
<path d="M74.668 52.3125L75.8203 109.469" stroke="#4C241D" stroke-width="2" stroke-linecap="round" stroke-linejoin="round"/>
<path d="M90.8008 52.3125L89.6484 109.469" stroke="#4C241D" stroke-width="2" stroke-linecap="round" stroke-linejoin="round"/>
<path d="M44.0156 102.094C46.5613 102.094 48.625 100.03 48.625 97.4844C48.625 94.9387 46.5613 92.875 44.0156 92.875C41.4699 92.875 39.4062 94.9387 39.4062 97.4844C39.4062 100.03 41.4699 102.094 44.0156 102.094Z" stroke="#4C241D" stroke-width="2" stroke-linecap="round" stroke-linejoin="round"/>
<path d="M8.21391 73.8237C8.21464 74.2137 8.09966 74.5951 7.88353 74.9197C7.6674 75.2444 7.35984 75.4975 6.99975 75.6473C6.63967 75.797 6.24326 75.8366 5.86069 75.761C5.47811 75.6853 5.12658 75.4979 4.85056 75.2224C4.57455 74.9469 4.38647 74.5957 4.31012 74.2133C4.23377 73.8309 4.27258 73.4344 4.42165 73.074C4.57072 72.7137 4.82334 72.4056 5.14755 72.1889C5.47175 71.9721 5.85296 71.8564 6.24294 71.8564C6.76488 71.8569 7.26537 72.0642 7.63478 72.433C8.0042 72.8017 8.21244 73.3018 8.21391 73.8237Z" fill="#4C241D"/>
</svg>
