<svg width="9" height="13" viewBox="0 0 9 13" fill="none" xmlns="http://www.w3.org/2000/svg">
<path d="M0.642689 11.1667H8.35731C8.5202 11.1667 8.67699 11.2309 8.79601 11.3462C8.91503 11.4615 8.9874 11.6194 8.9985 11.7879C9.00961 11.9564 8.95861 12.123 8.85582 12.254C8.75303 12.3851 8.60611 12.4708 8.44474 12.4938L8.35731 12.5H0.642689C0.479805 12.4999 0.323012 12.4358 0.203991 12.3205C0.0849713 12.2052 0.0125983 12.0473 0.00149611 11.8788C-0.00960608 11.7103 0.0413903 11.5437 0.144181 11.4126C0.246972 11.2816 0.393893 11.1959 0.555257 11.1729L0.642689 11.1667H8.35731H0.642689ZM4.41257 0.506222L4.5 0.5C4.65535 0.500007 4.80545 0.558349 4.92253 0.664237C5.03961 0.770126 5.11576 0.916397 5.13689 1.076L5.14289 1.16667V8.00044L7.07583 5.99689C7.18484 5.88388 7.32937 5.81526 7.48309 5.80351C7.63681 5.79176 7.78949 5.83768 7.91329 5.93289L7.98529 5.99689C8.09427 6.10993 8.16045 6.25981 8.17178 6.41922C8.18311 6.57863 8.13883 6.73695 8.04701 6.86533L7.98529 6.94L4.95431 10.0822C4.84545 10.1951 4.70114 10.2638 4.54762 10.2757C4.39409 10.2876 4.24153 10.242 4.1177 10.1471L4.04569 10.0822L1.01471 6.94C0.899678 6.82104 0.832343 6.66134 0.826238 6.493C0.820134 6.32466 0.875713 6.16016 0.9818 6.03259C1.08789 5.90501 1.23662 5.82381 1.39809 5.80531C1.55956 5.78682 1.72179 5.8324 1.85217 5.93289L1.92417 5.99689L3.85711 8.00222V1.16667C3.85712 1.00557 3.91338 0.849918 4.01549 0.728506C4.1176 0.607094 4.25866 0.528132 4.41257 0.506222L4.5 0.5L4.41257 0.506222Z" fill="#219D82"/>
</svg>
