<svg width="7" height="13" viewBox="0 0 7 13" fill="none" xmlns="http://www.w3.org/2000/svg">
<path d="M1.16667 3.00008C1.811 3.00008 2.33333 2.47775 2.33333 1.83341C2.33333 1.18908 1.811 0.666748 1.16667 0.666748C0.522334 0.666748 0 1.18908 0 1.83341C0 2.47775 0.522334 3.00008 1.16667 3.00008Z" fill="#2A2932"/>
<path d="M1.16667 12.3333C1.811 12.3333 2.33333 11.811 2.33333 11.1667C2.33333 10.5223 1.811 10 1.16667 10C0.522334 10 0 10.5223 0 11.1667C0 11.811 0.522334 12.3333 1.16667 12.3333Z" fill="#2A2932"/>
<path d="M5.83317 3.00008C6.4775 3.00008 6.99984 2.47775 6.99984 1.83341C6.99984 1.18908 6.4775 0.666748 5.83317 0.666748C5.18884 0.666748 4.6665 1.18908 4.6665 1.83341C4.6665 2.47775 5.18884 3.00008 5.83317 3.00008Z" fill="#2A2932"/>
<path d="M5.83317 12.3333C6.4775 12.3333 6.99984 11.811 6.99984 11.1667C6.99984 10.5223 6.4775 10 5.83317 10C5.18884 10 4.6665 10.5223 4.6665 11.1667C4.6665 11.811 5.18884 12.3333 5.83317 12.3333Z" fill="#2A2932"/>
<path d="M5.83317 7.66683C6.4775 7.66683 6.99984 7.14449 6.99984 6.50016C6.99984 5.85583 6.4775 5.3335 5.83317 5.3335C5.18884 5.3335 4.6665 5.85583 4.6665 6.50016C4.6665 7.14449 5.18884 7.66683 5.83317 7.66683Z" fill="#2A2932"/>
<path d="M1.16667 7.66683C1.811 7.66683 2.33333 7.14449 2.33333 6.50016C2.33333 5.85583 1.811 5.3335 1.16667 5.3335C0.522334 5.3335 0 5.85583 0 6.50016C0 7.14449 0.522334 7.66683 1.16667 7.66683Z" fill="#2A2932"/>
</svg>
