<svg width="9" height="11" viewBox="0 0 9 11" fill="none" xmlns="http://www.w3.org/2000/svg">
<path d="M4.00754 0.314673C4.27259 0.314622 4.5268 0.413916 4.71425 0.59071C4.90171 0.767503 5.00704 1.00731 5.00709 1.25739L5.00826 7.46547L6.30021 6.24699C6.48784 6.07016 6.74223 5.97088 7.00742 5.97101C7.27262 5.97113 7.5269 6.07065 7.71432 6.24767C7.90174 6.42469 8.00696 6.6647 8.00682 6.91492C8.00668 7.16513 7.90119 7.40504 7.71357 7.58188L4.89186 10.2405C4.63907 10.4781 4.39226 10.6866 4.00951 10.6866C3.67372 10.6867 3.44384 10.5274 3.22194 10.3285L0.304269 7.58328C0.116581 7.40652 0.0110066 7.16664 0.0107718 6.91643C0.010537 6.66622 0.11566 6.42616 0.303016 6.24907C0.490372 6.07199 0.744613 5.97237 1.00981 5.97214C1.27501 5.97192 1.52943 6.0711 1.71712 6.24786L3.00953 7.46585L3.00835 1.25777C3.00831 1.00769 3.11355 0.767842 3.30094 0.590977C3.48832 0.414113 3.74249 0.314723 4.00754 0.314673Z" fill="#2A2932"/>
</svg>
