<svg width="10" height="10" viewBox="0 0 10 10" fill="none" xmlns="http://www.w3.org/2000/svg">
<path d="M0.605578 6.64881L0.0147845 9.19855C-0.00559595 9.29176 -0.00489729 9.38834 0.0168293 9.48124C0.0385559 9.57415 0.0807617 9.66102 0.140363 9.73552C0.199965 9.81003 0.275457 9.87027 0.361324 9.91186C0.447192 9.95345 0.541266 9.97534 0.636673 9.97591C0.681129 9.9804 0.725923 9.9804 0.770379 9.97591L3.33567 9.38512L8.26103 4.47842L5.51228 1.73589L0.605578 6.64881Z" fill="#3D3B48"/>
<path d="M9.80942 2.02194L7.97485 0.187371C7.85424 0.0673668 7.69102 0 7.52087 0C7.35073 0 7.18751 0.0673668 7.06689 0.187371L6.047 1.20727L8.79263 3.95291L9.81253 2.93301C9.87222 2.87302 9.91949 2.80185 9.95164 2.72358C9.98379 2.6453 10.0002 2.56145 9.9999 2.47683C9.99961 2.39221 9.98264 2.30848 9.94996 2.23042C9.91727 2.15236 9.86952 2.08152 9.80942 2.02194Z" fill="#3D3B48"/>
</svg>
