<svg width="15" height="15" viewBox="0 0 15 15" fill="none" xmlns="http://www.w3.org/2000/svg">
<path d="M7.09407 6.48438C7.25572 6.48438 7.41075 6.54858 7.52505 6.66286C7.63935 6.77714 7.70356 6.93213 7.70356 7.09375V11.1059L8.49164 10.3186C8.60609 10.2043 8.76124 10.1402 8.92298 10.1403C9.08472 10.1404 9.23979 10.2047 9.35407 10.3192C9.46836 10.4336 9.5325 10.5887 9.53238 10.7504C9.53227 10.9121 9.46791 11.0672 9.35346 11.1814L7.63225 12.8993C7.47805 13.0528 7.32751 13.1875 7.09407 13.1875C6.88928 13.1875 6.7491 13.0845 6.61379 12.9559L4.83468 11.1814C4.72024 11.0672 4.65588 10.9121 4.65576 10.7504C4.65565 10.5887 4.71979 10.4336 4.83407 10.3192C4.94836 10.2047 5.10343 10.1404 5.26516 10.1403C5.4269 10.1402 5.58206 10.2043 5.6965 10.3186L6.48458 11.1059V7.09375C6.48458 6.93213 6.54879 6.77714 6.66309 6.66286C6.7774 6.54858 6.93242 6.48438 7.09407 6.48438ZM6.78933 1C8.48615 1 9.93431 2.06641 10.4987 3.56669C11.2506 3.77337 11.9167 4.21481 12.4 4.82663C12.8833 5.43844 13.1584 6.18863 13.1853 6.96778C13.2122 7.74693 12.9894 8.51429 12.5494 9.15795C12.1094 9.8016 11.4753 10.2879 10.7394 10.5459C10.6939 10.1344 10.5095 9.75069 10.2165 9.45813C9.905 9.14528 9.49043 8.95622 9.04993 8.92614L8.92255 8.92188V7.09375C8.92301 6.61789 8.73786 6.1606 8.40645 5.81905C8.07504 5.4775 7.62348 5.27861 7.14773 5.26465C6.67198 5.25069 6.20953 5.42274 5.85865 5.74427C5.50776 6.06579 5.2961 6.51143 5.26864 6.9865L5.26559 7.09375V8.92188C5.0252 8.92151 4.7871 8.96871 4.56503 9.06074C4.34295 9.15278 4.14128 9.28783 3.97164 9.45813C3.64377 9.7857 3.45306 10.2259 3.43833 10.6891C2.80381 10.5594 2.22705 10.2311 1.79168 9.75177C1.3563 9.2724 1.08492 8.66686 1.01688 8.02293C0.948832 7.379 1.08766 6.73014 1.41323 6.17039C1.7388 5.61064 2.2342 5.16909 2.82762 4.90975C2.84109 3.86814 3.26442 2.87376 4.00592 2.14198C4.74743 1.41019 5.74743 0.999913 6.78933 1Z" fill="#2A2932"/>
</svg>
