<svg width="13" height="10" viewBox="0 0 13 10" fill="none" xmlns="http://www.w3.org/2000/svg">
<path d="M6.27262 6.63703C7.17637 6.63703 7.909 5.90439 7.909 5.00064C7.909 4.09689 7.17637 3.36426 6.27262 3.36426C5.36887 3.36426 4.63623 4.09689 4.63623 5.00064C4.63623 5.90439 5.36887 6.63703 6.27262 6.63703Z" fill="#3D3B48"/>
<path d="M12.3845 4.86097C11.9034 3.61635 11.068 2.54001 9.98182 1.76496C8.89559 0.989916 7.60607 0.550144 6.27262 0.5C4.93918 0.550144 3.64966 0.989916 2.56343 1.76496C1.4772 2.54001 0.641887 3.61635 0.160724 4.86097C0.128229 4.95085 0.128229 5.04927 0.160724 5.13915C0.641887 6.38377 1.4772 7.46011 2.56343 8.23516C3.64966 9.0102 4.93918 9.44998 6.27262 9.50012C7.60607 9.44998 8.89559 9.0102 9.98182 8.23516C11.068 7.46011 11.9034 6.38377 12.3845 5.13915C12.417 5.04927 12.417 4.95085 12.3845 4.86097ZM6.27262 7.65919C5.7467 7.65919 5.23258 7.50323 4.79529 7.21104C4.358 6.91885 4.01717 6.50356 3.81591 6.01766C3.61465 5.53177 3.56199 4.99711 3.66459 4.48129C3.76719 3.96547 4.02045 3.49166 4.39234 3.11977C4.76422 2.74789 5.23803 2.49463 5.75385 2.39203C6.26967 2.28943 6.80434 2.34208 7.29023 2.54335C7.77612 2.74461 8.19142 3.08544 8.48361 3.52273C8.77579 3.96002 8.93175 4.47413 8.93175 5.00006C8.93067 5.70497 8.65016 6.3807 8.15172 6.87915C7.65327 7.3776 6.97754 7.6581 6.27262 7.65919Z" fill="#3D3B48"/>
</svg>
