<svg width="10" height="6" viewBox="0 0 10 6" fill="none" xmlns="http://www.w3.org/2000/svg">
<path d="M9.4997 0.500002L0.499443 0.500001C0.408321 0.500192 0.319001 0.516976 0.241099 0.548547C0.163196 0.580118 0.0996613 0.625279 0.0573334 0.679171C0.0150055 0.733063 -0.00451333 0.793645 0.00087874 0.854394C0.00626986 0.915143 0.0363678 0.97376 0.087932 1.02394L4.58806 5.36501C4.77456 5.545 5.22358 5.545 5.41058 5.36501L9.91071 1.02394C9.9628 0.973866 9.99335 0.915219 9.99903 0.854369C10.0047 0.793518 9.98532 0.732791 9.94295 0.678785C9.90059 0.624779 9.83687 0.579559 9.75872 0.548039C9.68058 0.51652 9.59099 0.499906 9.4997 0.500002Z" fill="#6C697B"/>
</svg>
