<svg width="12" height="13" viewBox="0 0 12 13" fill="none" xmlns="http://www.w3.org/2000/svg">
<path d="M5.75 12.25C2.57428 12.25 0 9.67572 0 6.5C0 3.32428 2.57428 0.75 5.75 0.75C8.92572 0.75 11.5 3.32428 11.5 6.5C11.4965 9.674 8.924 12.2465 5.75 12.25ZM5.175 9.375V10.525H6.325V9.375H5.175ZM5.75 3.625C6.055 3.625 6.34751 3.74616 6.56317 3.96183C6.77884 4.17749 6.9 4.47 6.9 4.775C6.90097 4.92602 6.87142 5.07568 6.81312 5.215C6.75482 5.35432 6.66898 5.48042 6.56075 5.58575L5.84775 6.31025C5.41733 6.74249 5.17546 7.32751 5.175 7.9375V8.225H6.325C6.30296 7.92014 6.35229 7.61434 6.46907 7.33187C6.58585 7.0494 6.76686 6.79804 6.99775 6.59775L7.51525 6.06875C7.6855 5.89918 7.82043 5.69752 7.91222 5.47544C8.00401 5.25337 8.05084 5.01529 8.05 4.775C8.05 4.165 7.80768 3.57999 7.37635 3.14865C6.94501 2.71732 6.36 2.475 5.75 2.475C5.14 2.475 4.55499 2.71732 4.12365 3.14865C3.69232 3.57999 3.45 4.165 3.45 4.775H4.6C4.6 4.47 4.72116 4.17749 4.93683 3.96183C5.15249 3.74616 5.445 3.625 5.75 3.625Z" fill="#2A2932"/>
</svg>
