<svg width="7" height="11" viewBox="0 0 7 11" fill="none" xmlns="http://www.w3.org/2000/svg">
<path d="M1.16667 2.20001C1.81101 2.20001 2.33334 1.70752 2.33334 1.10001C2.33334 0.492489 1.81101 0 1.16667 0C0.522337 0 0 0.492489 0 1.10001C0 1.70752 0.522337 2.20001 1.16667 2.20001Z" fill="#2A2932"/>
<path d="M1.16667 10.9998C1.81101 10.9998 2.33334 10.5073 2.33334 9.89981C2.33334 9.29229 1.81101 8.7998 1.16667 8.7998C0.522337 8.7998 0 9.29229 0 9.89981C0 10.5073 0.522337 10.9998 1.16667 10.9998Z" fill="#2A2932"/>
<path d="M5.83342 2.20001C6.47775 2.20001 7.00009 1.70752 7.00009 1.10001C7.00009 0.492489 6.47775 0 5.83342 0C5.18908 0 4.66675 0.492489 4.66675 1.10001C4.66675 1.70752 5.18908 2.20001 5.83342 2.20001Z" fill="#2A2932"/>
<path d="M5.83342 10.9998C6.47775 10.9998 7.00009 10.5073 7.00009 9.89981C7.00009 9.29229 6.47775 8.7998 5.83342 8.7998C5.18908 8.7998 4.66675 9.29229 4.66675 9.89981C4.66675 10.5073 5.18908 10.9998 5.83342 10.9998Z" fill="#2A2932"/>
<path d="M5.83342 6.6004C6.47775 6.6004 7.00009 6.10791 7.00009 5.5004C7.00009 4.89288 6.47775 4.40039 5.83342 4.40039C5.18908 4.40039 4.66675 4.89288 4.66675 5.5004C4.66675 6.10791 5.18908 6.6004 5.83342 6.6004Z" fill="#2A2932"/>
<path d="M1.16667 6.6004C1.81101 6.6004 2.33334 6.10791 2.33334 5.5004C2.33334 4.89288 1.81101 4.40039 1.16667 4.40039C0.522337 4.40039 0 4.89288 0 5.5004C0 6.10791 0.522337 6.6004 1.16667 6.6004Z" fill="#2A2932"/>
</svg>
