<svg width="76" height="76" viewBox="0 0 76 76" fill="none" xmlns="http://www.w3.org/2000/svg">
<path d="M31.5835 72.5817C46.8216 72.5817 59.1745 60.2288 59.1745 44.9907C59.1745 29.7526 46.8216 17.3997 31.5835 17.3997C16.3454 17.3997 3.99243 29.7526 3.99243 44.9907C3.99243 60.2288 16.3454 72.5817 31.5835 72.5817Z" fill="#EEEEEE"/>
<path d="M60.5308 39.4814L64.1605 43.1113" stroke="#4C241D" stroke-width="2.56661" stroke-linecap="round" stroke-linejoin="round"/>
<path d="M64.1605 39.4814L60.5308 43.1113" stroke="#4C241D" stroke-width="2.56661" stroke-linecap="round" stroke-linejoin="round"/>
<path d="M43.6381 41.4901L40.9158 44.2124L50.8975 54.1942L53.6198 51.4719L43.6381 41.4901Z" fill="#6B4F5B" stroke="#4C241D" stroke-width="2.56661" stroke-linecap="round" stroke-linejoin="round"/>
<path d="M53.2886 51.8031L51.2285 53.8631C50.5445 54.5472 50.5445 55.6562 51.2285 56.3402L68.715 73.8267C69.399 74.5107 70.508 74.5107 71.1921 73.8267L73.2521 71.7666C73.9362 71.0826 73.9362 69.9735 73.2521 69.2895L55.7657 51.8031C55.0817 51.119 53.9726 51.119 53.2886 51.8031Z" fill="#BF7E68" stroke="#4C241D" stroke-width="2.56661" stroke-linecap="round" stroke-linejoin="round"/>
<path d="M25.8086 50.7656C39.2748 50.7656 50.1913 39.849 50.1913 26.3828C50.1913 12.9165 39.2748 2 25.8086 2C12.3423 2 1.42578 12.9165 1.42578 26.3828C1.42578 39.849 12.3423 50.7656 25.8086 50.7656Z" fill="#B5A19C" stroke="#4C241D" stroke-width="2.56661" stroke-linecap="round" stroke-linejoin="round"/>
<path d="M70.1508 29.3184C70.9085 29.3184 71.5228 28.7042 71.5228 27.9464C71.5228 27.1887 70.9085 26.5745 70.1508 26.5745C69.3931 26.5745 68.7788 27.1887 68.7788 27.9464C68.7788 28.7042 69.3931 29.3184 70.1508 29.3184Z" fill="#4C241D"/>
<path d="M72.6492 16.1163H58.5329C57.4697 16.1163 56.6079 16.9782 56.6079 18.0413C56.6079 19.1044 57.4697 19.9662 58.5329 19.9662H72.6492C73.7123 19.9662 74.5742 19.1044 74.5742 18.0413C74.5742 16.9782 73.7123 16.1163 72.6492 16.1163Z" fill="#A9BA5A" stroke="#4C241D" stroke-width="2.56661" stroke-linecap="round" stroke-linejoin="round"/>
<path d="M64.9494 8.4165H58.5329C57.4697 8.4165 56.6079 9.27834 56.6079 10.3415C56.6079 11.4046 57.4697 12.2664 58.5329 12.2664H64.9494C66.0125 12.2664 66.8743 11.4046 66.8743 10.3415C66.8743 9.27834 66.0125 8.4165 64.9494 8.4165Z" fill="#9DC1E4" stroke="#4C241D" stroke-width="2.56661" stroke-linecap="round" stroke-linejoin="round"/>
<path d="M24.5253 68.7318C25.9428 68.7318 27.092 67.5827 27.092 66.1652C27.092 64.7477 25.9428 63.5986 24.5253 63.5986C23.1078 63.5986 21.9587 64.7477 21.9587 66.1652C21.9587 67.5827 23.1078 68.7318 24.5253 68.7318Z" stroke="#4C241D" stroke-width="2.56661" stroke-linecap="round" stroke-linejoin="round"/>
<path d="M25.8087 41.574C34.1987 41.574 41.0002 34.7726 41.0002 26.3825C41.0002 17.9925 34.1987 11.191 25.8087 11.191C17.4186 11.191 10.6172 17.9925 10.6172 26.3825C10.6172 34.7726 17.4186 41.574 25.8087 41.574Z" fill="white" stroke="#4C241D" stroke-width="2.17021" stroke-linecap="round" stroke-linejoin="round"/>
<path d="M32.4595 22.1814L29.9763 19.6982L25.8086 23.866L21.6408 19.6982L19.1577 22.1814L23.3255 26.3491L19.1577 30.5169L21.6408 33L25.8086 28.8322L29.9763 33L32.4595 30.5169L28.2917 26.3491L32.4595 22.1814Z" fill="#F03737" stroke="#4C241D" stroke-width="1.5" stroke-linecap="round" stroke-linejoin="round"/>
</svg>
