<svg width="12" height="13" viewBox="0 0 12 13" fill="none" xmlns="http://www.w3.org/2000/svg">
<path d="M11.1429 5.64286H6.85714V1.35714C6.85714 0.884 6.47314 0.5 6 0.5C5.52686 0.5 5.14286 0.884 5.14286 1.35714V5.64286H0.857143C0.384 5.64286 0 6.02686 0 6.5C0 6.97314 0.384 7.35714 0.857143 7.35714H5.14286V11.6429C5.14286 12.116 5.52686 12.5 6 12.5C6.47314 12.5 6.85714 12.116 6.85714 11.6429V7.35714H11.1429C11.616 7.35714 12 6.97314 12 6.5C12 6.02686 11.616 5.64286 11.1429 5.64286Z" fill="#219D82"/>
</svg>
