<svg width="66" height="30" viewBox="0 0 66 30" fill="none" xmlns="http://www.w3.org/2000/svg">
<g clip-path="url(#clip0_32_2466)">
<path d="M15.4058 26.8641V16.4033H18.1847V26.8641H15.4058Z" fill="#FFA525"/>
<path d="M26.5979 19.169H28.6717V26.8574H26.525L26.2853 26.3149C25.5906 26.8475 24.7777 27.1155 23.8468 27.1155C23.0339 27.1155 22.3045 26.9401 21.6618 26.5895C21.0157 26.2388 20.5155 25.7525 20.1543 25.1305C19.793 24.5086 19.6158 23.8006 19.6158 23.0132C19.6158 21.8223 20.0118 20.8463 20.8038 20.0821C21.5958 19.3212 22.6102 18.9374 23.8468 18.9374C24.7951 18.9374 25.6184 19.212 26.3131 19.7579L26.5979 19.169ZM22.9263 24.2704C23.2667 24.6045 23.6974 24.7699 24.2185 24.7699C24.7395 24.7699 25.1703 24.6045 25.5142 24.2704C25.8581 23.9362 26.0283 23.5194 26.0283 23.0198C26.0283 22.5203 25.8581 22.1035 25.5142 21.7693C25.1703 21.4352 24.7395 21.2698 24.2185 21.2698C23.6974 21.2698 23.2667 21.4352 22.9263 21.766C22.5858 22.0968 22.4156 22.517 22.4156 23.0198C22.4156 23.5194 22.5858 23.9362 22.9263 24.2704Z" fill="#FFA525"/>
<path d="M35.2857 18.9242C36.5223 18.9242 37.5366 19.308 38.3286 20.0755C39.1206 20.843 39.5166 21.8223 39.5166 23.0198C39.5166 23.8072 39.336 24.5152 38.9782 25.1404C38.617 25.7657 38.1167 26.252 37.4706 26.5994C36.8245 26.9468 36.0985 27.1221 35.2857 27.1221C34.5597 27.1221 33.9032 26.9534 33.3161 26.6159V29.6397H30.5719V19.1756H32.4616L32.8124 19.7877C33.5072 19.212 34.3304 18.9242 35.2857 18.9242ZM33.6183 24.277C33.9622 24.6111 34.393 24.7765 34.914 24.7765C35.4351 24.7765 35.8658 24.6111 36.2097 24.277C36.5536 23.9429 36.7238 23.5227 36.7238 23.0198C36.7238 22.5137 36.5536 22.0968 36.2097 21.7627C35.8658 21.4286 35.4351 21.2632 34.914 21.2632C34.393 21.2632 33.9622 21.4286 33.6183 21.7627C33.2744 22.0968 33.1042 22.517 33.1042 23.0198C33.1042 23.526 33.2744 23.9429 33.6183 24.277Z" fill="#FFA525"/>
<path d="M45.1926 24.5417H46.2659V26.8641H44.3554C43.4592 26.8641 42.7575 26.6192 42.2469 26.1296C41.7362 25.64 41.4792 24.9717 41.4792 24.1182V21.2135H40.0063V20.5949L43.619 16.9326H44.1956V19.1789H46.2242V21.2168H44.2616V23.6617C44.2616 23.9362 44.345 24.1513 44.5082 24.3068C44.6715 24.4623 44.9008 24.5417 45.1926 24.5417Z" fill="#FFA525"/>
<path d="M55.9436 22.9504C55.9436 23.1919 55.9263 23.4235 55.8915 23.6451H49.8925C49.9863 24.0851 50.1738 24.4193 50.4552 24.6475C50.7366 24.8758 51.1013 24.9883 51.5425 24.9883C51.869 24.9883 52.1608 24.9254 52.4144 24.7964C52.6714 24.6674 52.8659 24.492 53.0014 24.2638H55.7665C55.4851 25.1405 54.964 25.8319 54.1998 26.3447C53.4391 26.8574 52.5533 27.1122 51.539 27.1122C50.7123 27.1122 49.9654 26.9335 49.295 26.5796C48.6246 26.2256 48.1035 25.7359 47.7214 25.1107C47.3393 24.4854 47.1517 23.7841 47.1517 23.0132C47.1517 21.8355 47.5651 20.8596 48.3953 20.0887C49.2255 19.3146 50.2711 18.9275 51.5355 18.9275C52.1712 18.9275 52.7652 19.0334 53.3175 19.2418C53.8664 19.4502 54.3318 19.7347 54.7139 20.092C55.096 20.4526 55.3948 20.8794 55.6102 21.3756C55.8359 21.8686 55.9436 22.3946 55.9436 22.9504ZM51.5425 20.9985C51.1395 20.9985 50.7991 21.0977 50.5247 21.2996C50.2503 21.5014 50.0557 21.7958 49.9446 22.1796H53.2064C52.9597 21.3922 52.4039 20.9985 51.5425 20.9985Z" fill="#FFA525"/>
<path d="M65.5519 26.8641H62.2762L60.2545 23.612V26.8641H57.4756V16.4033H60.2545V22.1862L62.1824 19.1756H65.2983L62.7868 22.8379L65.5519 26.8641Z" fill="#FFA525"/>
<path d="M2.765 22.0538L0.951733 22.4144C0.81626 22.4409 0.680786 22.3582 0.680786 22.2457V21.5212C0.680786 21.4087 0.812786 21.326 0.951733 21.3525L2.765 21.7131C2.98384 21.7594 2.98384 22.0108 2.765 22.0538Z" fill="white"/>
<path d="M3.31379 23.4797L2.26127 24.4325C2.15358 24.5317 1.97643 24.5119 1.90348 24.3928L1.56306 23.8337C1.49011 23.7146 1.55958 23.5591 1.70548 23.5194L3.09843 23.129C3.32769 23.0596 3.48748 23.3209 3.31379 23.4797Z" fill="white"/>
<path d="M3.09844 20.6346L1.70549 20.2409C1.56307 20.2012 1.4936 20.0457 1.56655 19.9266L1.90697 19.3642C1.97644 19.2484 2.1536 19.2286 2.26128 19.3278L3.31381 20.2806C3.48749 20.4394 3.3277 20.7008 3.09844 20.6346Z" fill="white"/>
<path d="M7.46491 20.972C7.58302 20.5949 7.78102 20.2574 8.05891 19.9663C8.54523 19.4601 9.1566 19.2087 9.89649 19.2087C10.4453 19.2087 10.9316 19.3609 11.3554 19.6686C11.484 19.7612 11.6021 19.8671 11.7098 19.9795L13.7002 18.0839C13.6064 17.9946 13.5057 17.9086 13.4014 17.8226C12.4323 17.0385 11.2582 16.6448 9.88607 16.6448C8.84049 16.6448 7.89218 16.8731 7.0446 17.3263C6.19702 17.7795 5.53007 18.4081 5.04723 19.2054C4.7207 19.7513 4.50533 20.3401 4.40112 20.972H7.46491Z" fill="#FFA525"/>
<path d="M11.4076 24.0454C10.9803 24.3762 10.4801 24.5416 9.89998 24.5416C9.16008 24.5416 8.54871 24.2902 8.0624 23.7907C7.78103 23.5029 7.58303 23.1654 7.46492 22.785H4.40808C4.51229 23.4168 4.72766 24.009 5.05766 24.5549C5.5405 25.3522 6.20398 25.9774 7.05503 26.4307C7.90261 26.8839 8.85092 27.1122 9.8965 27.1122C11.2894 27.1122 12.474 26.7053 13.4501 25.8947C13.5369 25.822 13.6238 25.7459 13.7037 25.6698L11.7063 23.7675C11.6125 23.8668 11.5152 23.9594 11.4076 24.0454Z" fill="#FFA525"/>
</g>
<path d="M4.88068 10.0526V2.7799H7.33807C7.90862 2.7799 8.375 2.88288 8.73722 3.08885C9.1018 3.29245 9.37169 3.56825 9.54688 3.91626C9.72206 4.26428 9.80966 4.65253 9.80966 5.08104C9.80966 5.50954 9.72206 5.89898 9.54688 6.24936C9.37405 6.59974 9.10653 6.8791 8.74432 7.08743C8.3821 7.29339 7.91809 7.39638 7.35227 7.39638H5.59091V6.61513H7.32386C7.71449 6.61513 8.02817 6.54766 8.26491 6.41271C8.50166 6.27777 8.6733 6.09548 8.77983 5.86584C8.88873 5.63383 8.94318 5.37223 8.94318 5.08104C8.94318 4.78984 8.88873 4.52943 8.77983 4.29979C8.6733 4.07015 8.50047 3.89022 8.26136 3.76001C8.02225 3.62744 7.70502 3.56115 7.30966 3.56115H5.76136V10.0526H4.88068ZM13.472 10.1663C12.9796 10.1663 12.5475 10.0491 12.1759 9.8147C11.8065 9.58033 11.5177 9.25244 11.3094 8.83104C11.1034 8.40964 11.0004 7.91721 11.0004 7.35376C11.0004 6.78558 11.1034 6.28961 11.3094 5.86584C11.5177 5.44207 11.8065 5.113 12.1759 4.87862C12.5475 4.64425 12.9796 4.52706 13.472 4.52706C13.9644 4.52706 14.3953 4.64425 14.7646 4.87862C15.1363 5.113 15.4251 5.44207 15.6311 5.86584C15.8394 6.28961 15.9436 6.78558 15.9436 7.35376C15.9436 7.91721 15.8394 8.40964 15.6311 8.83104C15.4251 9.25244 15.1363 9.58033 14.7646 9.8147C14.3953 10.0491 13.9644 10.1663 13.472 10.1663ZM13.472 9.41342C13.8461 9.41342 14.1538 9.31754 14.3953 9.12578C14.6368 8.93402 14.8155 8.68189 14.9315 8.36939C15.0475 8.05689 15.1055 7.71835 15.1055 7.35376C15.1055 6.98918 15.0475 6.64946 14.9315 6.33459C14.8155 6.01972 14.6368 5.76522 14.3953 5.57109C14.1538 5.37696 13.8461 5.2799 13.472 5.2799C13.098 5.2799 12.7902 5.37696 12.5487 5.57109C12.3072 5.76522 12.1285 6.01972 12.0125 6.33459C11.8965 6.64946 11.8385 6.98918 11.8385 7.35376C11.8385 7.71835 11.8965 8.05689 12.0125 8.36939C12.1285 8.68189 12.3072 8.93402 12.5487 9.12578C12.7902 9.31754 13.098 9.41342 13.472 9.41342ZM18.4732 10.0526L16.8112 4.59808H17.6919L18.8709 8.77422H18.9277L20.0925 4.59808H20.9874L22.1379 8.76001H22.1947L23.3737 4.59808H24.2544L22.5925 10.0526H21.7686L20.5754 5.86229H20.4902L19.297 10.0526H18.4732ZM27.6637 10.1663C27.1382 10.1663 26.6848 10.0503 26.3037 9.81825C25.9249 9.58388 25.6325 9.25717 25.4265 8.83814C25.2229 8.41674 25.1211 7.92668 25.1211 7.36797C25.1211 6.80926 25.2229 6.31683 25.4265 5.8907C25.6325 5.46219 25.919 5.12839 26.2859 4.88928C26.6552 4.6478 27.0861 4.52706 27.5785 4.52706C27.8626 4.52706 28.1431 4.57441 28.4201 4.6691C28.6971 4.7638 28.9493 4.91768 29.1765 5.13075C29.4038 5.34145 29.5849 5.62081 29.7199 5.96882C29.8548 6.31683 29.9223 6.74534 29.9223 7.25433V7.60945H25.7177V6.88501H29.07C29.07 6.57725 29.0084 6.30263 28.8853 6.06115C28.7646 5.81967 28.5918 5.6291 28.3669 5.48942C28.1443 5.34974 27.8815 5.2799 27.5785 5.2799C27.2447 5.2799 26.9559 5.36276 26.712 5.52848C26.4706 5.69183 26.2847 5.9049 26.1545 6.16768C26.0243 6.43047 25.9592 6.71219 25.9592 7.01285V7.49581C25.9592 7.90774 26.0302 8.25694 26.1723 8.54339C26.3167 8.82749 26.5167 9.0441 26.7724 9.19325C27.0281 9.34003 27.3252 9.41342 27.6637 9.41342C27.8839 9.41342 28.0828 9.38265 28.2603 9.32109C28.4403 9.25717 28.5953 9.16248 28.7255 9.037C28.8557 8.90916 28.9564 8.75054 29.0274 8.56115L29.837 8.78842C29.7518 9.06304 29.6086 9.30452 29.4074 9.51285C29.2061 9.71882 28.9575 9.87981 28.6616 9.99581C28.3657 10.1094 28.0331 10.1663 27.6637 10.1663ZM31.3971 10.0526V4.59808H32.2068V5.42195H32.2636C32.363 5.15206 32.543 4.93307 32.8034 4.76499C33.0638 4.5969 33.3574 4.51285 33.6841 4.51285C33.7456 4.51285 33.8225 4.51404 33.9149 4.51641C34.0072 4.51877 34.077 4.52232 34.1244 4.52706V5.37933C34.096 5.37223 34.0309 5.36158 33.9291 5.34737C33.8297 5.3308 33.7243 5.32251 33.613 5.32251C33.3479 5.32251 33.1111 5.37815 32.9028 5.48942C32.6968 5.59832 32.5335 5.74983 32.4127 5.94396C32.2944 6.13572 32.2352 6.35471 32.2352 6.60092V10.0526H31.3971ZM37.4387 10.1663C36.9132 10.1663 36.4598 10.0503 36.0787 9.81825C35.6999 9.58388 35.4075 9.25717 35.2015 8.83814C34.9979 8.41674 34.8961 7.92668 34.8961 7.36797C34.8961 6.80926 34.9979 6.31683 35.2015 5.8907C35.4075 5.46219 35.694 5.12839 36.0609 4.88928C36.4302 4.6478 36.8611 4.52706 37.3535 4.52706C37.6376 4.52706 37.9181 4.57441 38.1951 4.6691C38.4721 4.7638 38.7243 4.91768 38.9515 5.13075C39.1788 5.34145 39.3599 5.62081 39.4949 5.96882C39.6298 6.31683 39.6973 6.74534 39.6973 7.25433V7.60945H35.4927V6.88501H38.845C38.845 6.57725 38.7834 6.30263 38.6603 6.06115C38.5396 5.81967 38.3668 5.6291 38.1419 5.48942C37.9193 5.34974 37.6565 5.2799 37.3535 5.2799C37.0197 5.2799 36.7309 5.36276 36.487 5.52848C36.2456 5.69183 36.0597 5.9049 35.9295 6.16768C35.7993 6.43047 35.7342 6.71219 35.7342 7.01285V7.49581C35.7342 7.90774 35.8052 8.25694 35.9473 8.54339C36.0917 8.82749 36.2917 9.0441 36.5474 9.19325C36.8031 9.34003 37.1002 9.41342 37.4387 9.41342C37.6589 9.41342 37.8578 9.38265 38.0353 9.32109C38.2153 9.25717 38.3703 9.16248 38.5005 9.037C38.6307 8.90916 38.7314 8.75054 38.8024 8.56115L39.612 8.78842C39.5268 9.06304 39.3836 9.30452 39.1824 9.51285C38.9811 9.71882 38.7325 9.87981 38.4366 9.99581C38.1407 10.1094 37.8081 10.1663 37.4387 10.1663ZM43.2318 10.1663C42.7772 10.1663 42.376 10.0514 42.0279 9.8218C41.6799 9.5898 41.4077 9.26309 41.2112 8.84169C41.0147 8.41792 40.9164 7.91721 40.9164 7.33956C40.9164 6.76664 41.0147 6.26948 41.2112 5.84808C41.4077 5.42668 41.6811 5.10116 42.0315 4.87152C42.3819 4.64188 42.7867 4.52706 43.246 4.52706C43.6011 4.52706 43.8816 4.58625 44.0876 4.70462C44.2959 4.82062 44.4546 4.9532 44.5635 5.10234C44.6747 5.24912 44.7611 5.36986 44.8227 5.46456H44.8937V2.7799H45.7318V10.0526H44.9221V9.21456H44.8227C44.7611 9.31399 44.6735 9.43946 44.5599 9.59098C44.4463 9.74013 44.2841 9.87389 44.0734 9.99226C43.8627 10.1083 43.5822 10.1663 43.2318 10.1663ZM43.3454 9.41342C43.6816 9.41342 43.9657 9.32583 44.1977 9.15064C44.4297 8.97308 44.6061 8.72805 44.7268 8.41555C44.8476 8.10069 44.9079 7.73729 44.9079 7.32535C44.9079 6.91816 44.8487 6.56186 44.7304 6.25646C44.612 5.9487 44.4368 5.70959 44.2048 5.53913C43.9728 5.36631 43.6863 5.2799 43.3454 5.2799C42.9903 5.2799 42.6944 5.37105 42.4576 5.55334C42.2233 5.73326 42.0469 5.97829 41.9285 6.28842C41.8125 6.59619 41.7545 6.94183 41.7545 7.32535C41.7545 7.71361 41.8137 8.06636 41.9321 8.38359C42.0528 8.69846 42.2304 8.94941 42.4647 9.13643C42.7015 9.32109 42.995 9.41342 43.3454 9.41342ZM50.7092 10.0526V2.7799H51.5473V5.46456H51.6183C51.6798 5.36986 51.7651 5.24912 51.874 5.10234C51.9852 4.9532 52.1439 4.82062 52.3498 4.70462C52.5582 4.58625 52.8399 4.52706 53.195 4.52706C53.6543 4.52706 54.0591 4.64188 54.4095 4.87152C54.7599 5.10116 55.0333 5.42668 55.2298 5.84808C55.4263 6.26948 55.5245 6.76664 55.5245 7.33956C55.5245 7.91721 55.4263 8.41792 55.2298 8.84169C55.0333 9.26309 54.761 9.5898 54.413 9.8218C54.065 10.0514 53.6637 10.1663 53.2092 10.1663C52.8588 10.1663 52.5783 10.1083 52.3676 9.99226C52.1569 9.87389 51.9947 9.74013 51.8811 9.59098C51.7674 9.43946 51.6798 9.31399 51.6183 9.21456H51.5189V10.0526H50.7092ZM51.5331 7.32535C51.5331 7.73729 51.5934 8.10069 51.7142 8.41555C51.8349 8.72805 52.0113 8.97308 52.2433 9.15064C52.4753 9.32583 52.7594 9.41342 53.0956 9.41342C53.4459 9.41342 53.7383 9.32109 53.9727 9.13643C54.2094 8.94941 54.387 8.69846 54.5054 8.38359C54.6261 8.06636 54.6865 7.71361 54.6865 7.32535C54.6865 6.94183 54.6273 6.59619 54.5089 6.28842C54.3929 5.97829 54.2165 5.73326 53.9798 5.55334C53.7454 5.37105 53.4507 5.2799 53.0956 5.2799C52.7547 5.2799 52.4682 5.36631 52.2362 5.53913C52.0042 5.70959 51.829 5.9487 51.7106 6.25646C51.5922 6.56186 51.5331 6.91816 51.5331 7.32535ZM57.351 12.0981C57.2089 12.0981 57.0823 12.0862 56.971 12.0626C56.8597 12.0413 56.7828 12.02 56.7402 11.9987L56.9532 11.26C57.1568 11.3121 57.3368 11.331 57.493 11.3168C57.6493 11.3026 57.7877 11.2328 57.9085 11.1073C58.0316 10.9842 58.144 10.7842 58.2458 10.5072L58.4021 10.081L56.385 4.59808H57.2941L58.7998 8.94467H58.8566L60.3623 4.59808H61.2714L58.9561 10.8481C58.8519 11.1298 58.7229 11.363 58.569 11.5477C58.4151 11.7347 58.2364 11.8732 58.0328 11.9631C57.8315 12.0531 57.6043 12.0981 57.351 12.0981ZM63.1884 10.1094C63.0132 10.1094 62.8629 10.0467 62.7374 9.92124C62.6119 9.79576 62.5492 9.64543 62.5492 9.47024C62.5492 9.29505 62.6119 9.14472 62.7374 9.01925C62.8629 8.89377 63.0132 8.83104 63.1884 8.83104C63.3636 8.83104 63.5139 8.89377 63.6394 9.01925C63.7649 9.14472 63.8276 9.29505 63.8276 9.47024C63.8276 9.58624 63.798 9.69278 63.7388 9.78984C63.682 9.88691 63.6051 9.96503 63.508 10.0242C63.4133 10.081 63.3068 10.1094 63.1884 10.1094ZM63.1884 6.06115C63.0132 6.06115 62.8629 5.99841 62.7374 5.87294C62.6119 5.74747 62.5492 5.59714 62.5492 5.42195C62.5492 5.24676 62.6119 5.09642 62.7374 4.97095C62.8629 4.84548 63.0132 4.78274 63.1884 4.78274C63.3636 4.78274 63.5139 4.84548 63.6394 4.97095C63.7649 5.09642 63.8276 5.24676 63.8276 5.42195C63.8276 5.53795 63.798 5.64448 63.7388 5.74155C63.682 5.83861 63.6051 5.91674 63.508 5.97592C63.4133 6.03274 63.3068 6.06115 63.1884 6.06115Z" fill="white"/>
<defs>
<clipPath id="clip0_32_2466">
<rect width="66" height="13.8947" fill="white" transform="translate(0 16.0526)"/>
</clipPath>
</defs>
</svg>
