<svg width="16" height="15" viewBox="0 0 16 15" fill="none" xmlns="http://www.w3.org/2000/svg">
<path d="M6.91471 12.8287C8.33796 12.8284 9.72019 12.352 10.8413 11.4753L14.3662 15L15.5 13.8663L11.9751 10.3416C12.8523 9.22038 13.3291 7.83791 13.3294 6.41437C13.3294 2.87765 10.4516 0 6.91471 0C3.3778 0 0.5 2.87765 0.5 6.41437C0.5 9.95109 3.3778 12.8287 6.91471 12.8287ZM6.91471 1.60359C9.568 1.60359 11.7257 3.76123 11.7257 6.41437C11.7257 9.06751 9.568 11.2251 6.91471 11.2251C4.26143 11.2251 2.10368 9.06751 2.10368 6.41437C2.10368 3.76123 4.26143 1.60359 6.91471 1.60359Z" fill="#3D3B48"/>
</svg>
