<svg width="10" height="11" viewBox="0 0 10 11" fill="none" xmlns="http://www.w3.org/2000/svg">
<path d="M6.59086 5.5L9.67052 2.42034C10.1098 1.98103 10.1098 1.26879 9.67052 0.829481C9.23119 0.390173 8.51899 0.390173 8.07966 0.829481L5 3.90914L1.92034 0.829481C1.48103 0.390173 0.768789 0.390173 0.329481 0.829481C-0.109827 1.26879 -0.109827 1.98103 0.329481 2.42034L3.40914 5.5L0.329481 8.57966C-0.109827 9.01896 -0.109827 9.73121 0.329481 10.1705C0.549135 10.3902 0.837018 10.5 1.1249 10.5C1.41278 10.5 1.70069 10.3902 1.92032 10.1705L5 7.09086L8.07966 10.1705C8.29931 10.3902 8.58719 10.5 8.87508 10.5C9.16296 10.5 9.45084 10.3902 9.6705 10.1705C10.1098 9.73121 10.1098 9.01896 9.6705 8.57966L6.59086 5.5Z" fill="#6F6D7D"/>
</svg>
